<svg width="44.000000" height="44.000000" viewBox="0 0 44 44" fill="none" xmlns="http://www.w3.org/2000/svg" xmlns:xlink="http://www.w3.org/1999/xlink">
	<desc>
			Created with Pixso.
	</desc>
	<defs>
		<clipPath id="clip0_200">
			<rect id="christmas-dinner 2" width="44.000000" height="44.000000" fill="white" fill-opacity="0"/>
		</clipPath>
		<clipPath id="clip0_199">
			<rect id="asia" width="44.000000" height="44.000000" fill="white" fill-opacity="0"/>
		</clipPath>
	</defs>
	<rect id="asia" width="44.000000" height="44.000000" fill="#FFFFFF" fill-opacity="0"/>
	<g clip-path="url(#clip0_199)">
		<rect id="christmas-dinner 2" width="44.000000" height="44.000000" fill="#FFFFFF" fill-opacity="0"/>
		<g clip-path="url(#clip0_200)">
			<path id="Vector" d="M15.1316 13.5669L17.2564 13.5669C17.8077 13.5669 18.2563 14.0154 18.2563 14.5668L18.2563 16.0316C18.2563 16.3876 18.5448 16.6761 18.9008 16.6761C19.2567 16.6761 19.5453 16.3876 19.5453 16.0316L19.5453 14.5668C19.5453 13.3046 18.5184 12.2778 17.2564 12.2778L15.1316 12.2778C14.5895 12.2778 14.1484 11.8368 14.1484 11.2947C14.1484 10.7526 14.5895 10.3116 15.1316 10.3116L19.8431 10.3116C21.096 10.3116 22.1152 9.29236 22.1152 8.03943C22.1152 6.7865 21.0959 5.76733 19.8431 5.76733L16.0739 5.76733C15.7179 5.76733 15.4293 6.05591 15.4293 6.41187C15.4293 6.76782 15.7179 7.0564 16.0739 7.0564L19.8431 7.0564C20.3852 7.0564 20.8261 7.49744 20.8261 8.03943C20.8261 8.58154 20.3851 9.02258 19.8431 9.02258L15.1316 9.02258C13.8787 9.02258 12.8594 10.0419 12.8594 11.2947C12.8594 12.5475 13.8787 13.5669 15.1316 13.5669Z" fill="#363853" fill-opacity="1.000000" fill-rule="nonzero"/>
			<path id="Vector" d="M7.38855 17.8926L9.49712 17.8926C10.0414 17.8926 10.4844 18.3354 10.4844 18.8799L10.4844 20.3336C10.4844 20.6896 10.7729 20.9781 11.1289 20.9781C11.4848 20.9781 11.7734 20.6896 11.7734 20.3336L11.7734 18.8799C11.7734 17.6248 10.7522 16.6035 9.49712 16.6035L7.38855 16.6035C6.85333 16.6035 6.41797 16.1681 6.41797 15.6329C6.41797 15.0978 6.85341 14.6624 7.38855 14.6624L9.85384 14.6624C10.2098 14.6624 10.4984 14.3738 10.4984 14.0178C10.4984 13.6619 10.2098 13.3733 9.85384 13.3733L7.38855 13.3733C6.14253 13.3733 5.12891 14.387 5.12891 15.6329C5.12891 16.8789 6.14253 17.8926 7.38855 17.8926Z" fill="#363853" fill-opacity="1.000000" fill-rule="nonzero"/>
			<path id="Vector" d="M26.2969 26.168C26.2969 26.5239 26.0083 26.8125 25.6523 26.8125C25.2964 26.8125 25.0078 26.5239 25.0078 26.168C25.0078 25.812 25.2964 25.5234 25.6523 25.5234C26.0083 25.5234 26.2969 25.812 26.2969 26.168Z" fill="#363853" fill-opacity="1.000000" fill-rule="evenodd"/>
			<path id="Vector" d="M29.4766 27.6289C29.4766 27.9849 29.188 28.2734 28.832 28.2734C28.4761 28.2734 28.1875 27.9849 28.1875 27.6289C28.1875 27.2729 28.4761 26.9844 28.832 26.9844C29.188 26.9844 29.4766 27.2729 29.4766 27.6289Z" fill="#363853" fill-opacity="1.000000" fill-rule="evenodd"/>
			<path id="Vector" d="M31.3672 29.8633C31.3672 30.2192 31.0786 30.5078 30.7227 30.5078C30.3667 30.5078 30.0781 30.2192 30.0781 29.8633C30.0781 29.5073 30.3667 29.2188 30.7227 29.2188C31.0786 29.2188 31.3672 29.5073 31.3672 29.8633Z" fill="#363853" fill-opacity="1.000000" fill-rule="evenodd"/>
			<path id="Vector" d="M28.7031 24.6211C28.7031 24.9771 28.4146 25.2656 28.0586 25.2656C27.7026 25.2656 27.4141 24.9771 27.4141 24.6211C27.4141 24.2651 27.7026 23.9766 28.0586 23.9766C28.4146 23.9766 28.7031 24.2651 28.7031 24.6211Z" fill="#363853" fill-opacity="1.000000" fill-rule="evenodd"/>
			<path id="Vector" d="M26.5547 30.293C26.5547 30.6489 26.2661 30.9375 25.9102 30.9375C25.5542 30.9375 25.2656 30.6489 25.2656 30.293C25.2656 29.937 25.5542 29.6484 25.9102 29.6484C26.2661 29.6484 26.5547 29.937 26.5547 30.293Z" fill="#363853" fill-opacity="1.000000" fill-rule="evenodd"/>
			<path id="Vector" d="M42.9114 22.811L41.083 22.811L41.9867 20.9434C43.1331 20.7151 44 19.7015 44 18.489C44 17.2454 43.0882 16.2112 41.8981 16.0187C40.5827 13.6497 38.0131 11.8702 34.8968 11.16L34.8968 11.1108C34.8968 10.7549 34.6083 10.4663 34.2523 10.4663C33.9573 10.4663 33.7091 10.6648 33.6326 10.9353C33.2401 10.8846 32.8407 10.8518 32.4363 10.8351C32.3329 10.6173 32.1116 10.4663 31.8545 10.4663C31.5973 10.4663 31.3759 10.6173 31.2726 10.8351C30.8681 10.8518 30.4687 10.8846 30.0762 10.9353C29.9998 10.6648 29.7516 10.4663 29.4565 10.4663C29.1005 10.4663 28.812 10.7549 28.812 11.1108L28.812 11.16C25.6958 11.8702 23.1261 13.6497 21.8108 16.0187C20.6207 16.2112 19.709 17.2454 19.709 18.489C19.709 18.5616 19.7122 18.6334 19.7184 18.7045C16.7427 18.9812 14.0692 20.2244 12.0633 22.0897L8.01358 22.0897C7.73755 22.0897 7.4904 22.2135 7.32317 22.4081L5.43039 22.4081C5.12033 21.6246 4.35068 21.071 3.47342 21.071C2.31343 21.071 1.36975 22.0148 1.36975 23.1748C1.36975 23.2738 1.37758 23.3718 1.39124 23.4684C0.580856 23.761 0 24.5376 0 25.4475C0 25.8516 0.114731 26.2399 0.325439 26.5723C0.114731 26.9048 0 27.2931 0 27.6971C0 28.8571 0.94368 29.8008 2.10367 29.8008C2.98091 29.8008 3.75056 29.2472 4.06064 28.4637L5.76538 28.4637C5.84358 28.7511 6.05919 28.988 6.35086 29.0872L8.37178 29.7733C8.35974 29.9816 8.35321 30.1912 8.35321 30.4022C8.35321 30.6011 8.35889 30.799 8.36945 30.9962C8.05347 31.0724 7.75853 31.2032 7.49606 31.3793C7.06398 31.0895 6.54492 30.9199 5.98666 30.9199C4.48792 30.9199 3.26863 32.1392 3.26863 33.6379C3.26863 33.6609 3.27036 33.6835 3.27095 33.7062L2.51685 33.7062C2.09129 33.7062 1.71411 33.9453 1.53244 34.3301C1.35077 34.7148 1.40585 35.158 1.6763 35.4865L3.6098 37.8361C3.81743 38.0881 4.12372 38.2328 4.45036 38.2328L31.7103 38.2328C32.0663 38.2328 32.3548 37.9442 32.3548 37.5883C32.3548 37.2323 32.0663 36.9437 31.7103 36.9437L4.54498 36.9437L2.94147 34.9952L42.4853 34.9952L40.8818 36.9437L34.7181 36.9437C34.362 36.9437 34.0735 37.2323 34.0735 37.5883C34.0735 37.9442 34.362 38.2328 34.7181 38.2328L40.9764 38.2328C41.3031 38.2328 41.6095 38.0881 41.8169 37.8359L43.7504 35.4866C44.0207 35.158 44.0759 34.7148 43.8942 34.3301C43.7126 33.9452 43.3354 33.7062 42.9099 33.7062L42.2716 33.7062C42.905 32.6102 43.143 31.3112 42.9119 30.0347C42.8639 29.7703 42.657 29.5632 42.3925 29.5154C40.6466 29.1993 38.857 29.7581 37.6048 31.0101C37.5283 31.0867 37.4554 31.1659 37.3842 31.2463C37.0148 31.0463 36.594 30.9303 36.1474 30.9215L36.1474 29.6951L36.8351 29.6951C37.925 29.6951 38.8117 28.8083 38.8117 27.7184L38.8117 26.8533L42.9114 26.8533C43.5116 26.8533 44 26.3649 44 25.7646L44 23.8997C44 23.2993 43.5116 22.811 42.9114 22.811ZM6.29054 33.7063L4.56001 33.7063C4.5589 33.6836 4.55769 33.6609 4.55769 33.6379C4.55769 32.85 5.1987 32.209 5.98666 32.209C6.21078 32.209 6.42255 32.2615 6.61125 32.3541C6.40535 32.7367 6.28813 33.1738 6.28813 33.6379C6.28822 33.6609 6.28993 33.6835 6.29054 33.7063ZM38.5163 31.9218C39.3595 31.0787 40.5223 30.6484 41.7005 30.7268C41.7727 31.8121 41.412 32.8848 40.6953 33.7063L39.6325 33.7063L40.5131 32.8257C40.7648 32.574 40.7648 32.1659 40.5131 31.9143C40.2613 31.6626 39.8533 31.6626 39.6015 31.9143L38.6882 32.8276C38.6075 32.5699 38.4893 32.3287 38.3402 32.1102C38.3969 32.0458 38.4553 31.9828 38.5163 31.9218ZM25.5032 13.9423C26.4787 13.2887 27.6054 12.7986 28.812 12.4902L28.812 13.1534C28.812 13.5094 29.1005 13.798 29.4565 13.798C29.8126 13.798 30.1011 13.5094 30.1011 13.1534L30.1011 12.2346C30.4665 12.1826 30.8368 12.1483 31.2099 12.1292L31.2099 13.1534C31.2099 13.5094 31.4984 13.798 31.8545 13.798C32.2105 13.798 32.499 13.5094 32.499 13.1534L32.499 12.1292C32.8721 12.1483 33.2424 12.1827 33.6078 12.2346L33.6078 13.1534C33.6078 13.5094 33.8962 13.798 34.2523 13.798C34.6083 13.798 34.8968 13.5094 34.8968 13.1534L34.8968 12.4902C36.1035 12.7986 37.2302 13.2887 38.2057 13.9424C39.1561 14.5791 39.9304 15.348 40.4945 16.1984C40.2768 16.2942 40.0729 16.4202 39.89 16.5734C39.4452 16.2007 38.8773 15.9862 38.2829 15.9862C37.6885 15.9862 37.1205 16.2006 36.6758 16.5734C36.231 16.2007 35.663 15.9862 35.0687 15.9862C34.4743 15.9862 33.9063 16.2006 33.4616 16.5734C33.0168 16.2007 32.4488 15.9862 31.8545 15.9862C31.26 15.9862 30.6921 16.2006 30.2473 16.5734C29.8025 16.2007 29.2346 15.9862 28.6402 15.9862C28.0458 15.9862 27.4778 16.2006 27.0331 16.5734C26.5884 16.2007 26.0204 15.9862 25.426 15.9862C24.8316 15.9862 24.2637 16.2007 23.8189 16.5734C23.6361 16.4202 23.4321 16.2942 23.2144 16.1984C23.7785 15.3479 24.5528 14.579 25.5032 13.9423ZM22.2117 17.2753C22.642 17.2753 23.0441 17.5078 23.2612 17.8823C23.3765 18.0811 23.5889 18.2035 23.8188 18.2035C24.0486 18.2035 24.261 18.0812 24.3763 17.8823C24.5935 17.5078 24.9957 17.2753 25.4259 17.2753C25.8562 17.2753 26.2584 17.5078 26.4754 17.8823C26.5908 18.0811 26.8031 18.2035 27.033 18.2035C27.2629 18.2035 27.4753 18.0812 27.5906 17.8823C27.8076 17.5078 28.2098 17.2753 28.6401 17.2753C29.0703 17.2753 29.4725 17.5078 29.6898 17.8823C29.8051 18.0812 30.0175 18.2035 30.2473 18.2035C30.4771 18.2035 30.6895 18.0812 30.8048 17.8823C31.0219 17.5078 31.4241 17.2753 31.8544 17.2753C32.2846 17.2753 32.6868 17.5078 32.904 17.8823C33.0193 18.0812 33.2317 18.2035 33.4615 18.2035C33.6914 18.2035 33.9037 18.0812 34.019 17.8823C34.2361 17.5078 34.6383 17.2753 35.0686 17.2753C35.4988 17.2753 35.901 17.5078 36.1182 17.8823C36.2336 18.0812 36.4459 18.2035 36.6757 18.2035C36.9056 18.2035 37.118 18.0812 37.2333 17.8823C37.4504 17.5078 37.8525 17.2753 38.2828 17.2753C38.713 17.2753 39.1152 17.5078 39.3325 17.8823C39.4477 18.0812 39.6602 18.2035 39.89 18.2035C40.1198 18.2035 40.3322 18.0812 40.4475 17.8823C40.6646 17.5078 41.0668 17.2753 41.4971 17.2753C42.1663 17.2753 42.7108 17.8196 42.7108 18.4889C42.7108 19.1582 42.1663 19.7026 41.4971 19.7026C41.0668 19.7026 40.6646 19.47 40.4475 19.0956C40.3322 18.8967 40.1198 18.7743 39.89 18.7743C39.6602 18.7743 39.4477 18.8967 39.3325 19.0955C39.1152 19.47 38.713 19.7026 38.2828 19.7026C37.8525 19.7026 37.4504 19.47 37.2333 19.0956C37.118 18.8967 36.9056 18.7743 36.6757 18.7743C36.4459 18.7743 36.2335 18.8967 36.1182 19.0955C35.901 19.47 35.4988 19.7026 35.0686 19.7026C34.6383 19.7026 34.2361 19.47 34.019 19.0956C33.9037 18.8967 33.6914 18.7743 33.4615 18.7743C33.2317 18.7743 33.0193 18.8967 32.904 19.0955C32.6868 19.47 32.2846 19.7026 31.8544 19.7026C31.4241 19.7026 31.0219 19.47 30.8048 19.0956C30.6895 18.8967 30.4771 18.7743 30.2473 18.7743C30.0175 18.7743 29.805 18.8967 29.6898 19.0955C29.4725 19.47 29.0703 19.7026 28.6401 19.7026C28.2098 19.7026 27.8076 19.47 27.5906 19.0956C27.4753 18.8967 27.2629 18.7743 27.033 18.7743C26.8031 18.7743 26.5908 18.8967 26.4754 19.0956C26.3486 19.3143 26.1583 19.4843 25.9363 19.588C24.4222 18.9849 22.7569 18.6493 21.0094 18.6459C21.0026 18.5945 20.998 18.5422 20.998 18.4889C20.998 17.8196 21.5424 17.2753 22.2117 17.2753ZM8.39163 23.3787L10.8635 23.3787C10.6095 23.6951 10.3712 24.0228 10.1518 24.3625L8.39163 24.3625L8.39163 23.3787ZM5.7328 27.1747L3.5567 27.1747C3.22145 27.1747 2.94215 27.4318 2.9144 27.7659C2.87968 28.1841 2.52356 28.5117 2.10374 28.5117C1.65456 28.5117 1.28915 28.1464 1.28915 27.6971C1.28915 27.4536 1.397 27.2246 1.58511 27.069C1.73311 26.9464 1.81879 26.7644 1.81879 26.5723C1.81879 26.3801 1.73311 26.1981 1.58511 26.0757C1.397 25.92 1.28915 25.691 1.28915 25.4475C1.28915 24.9983 1.65456 24.6328 2.10374 24.6328C2.52356 24.6328 2.87968 24.9604 2.9144 25.3787C2.94215 25.7128 3.22145 25.9698 3.5567 25.9698L5.73289 25.9698L5.73289 27.1747L5.7328 27.1747ZM5.95332 24.6809L4.06064 24.6809C3.82362 24.082 3.31779 23.6185 2.70093 23.4329C2.67343 23.3506 2.65874 23.2635 2.65874 23.1747C2.65874 22.7255 3.02414 22.3601 3.47334 22.3601C3.89314 22.3601 4.24927 22.6877 4.28407 23.106C4.31183 23.4401 4.59113 23.697 4.92636 23.697L7.10257 23.697L7.10257 24.3625L6.64383 24.3625C6.3678 24.3625 6.12056 24.4865 5.95332 24.6809ZM10.433 33.7063L7.57961 33.7063C7.57849 33.6836 7.57729 33.6609 7.57729 33.6379C7.57729 32.85 8.21829 32.209 9.00626 32.209C9.7942 32.209 10.4352 32.85 10.4352 33.6379C10.4353 33.6609 10.434 33.6836 10.433 33.7063ZM30.3116 33.7063L28.0679 33.7063C28.0668 33.6836 28.0656 33.6609 28.0656 33.6379C28.0656 32.85 28.7066 32.209 29.4946 32.209C29.8885 32.209 30.2459 32.3693 30.5046 32.6281C30.3791 32.9406 30.3093 33.2811 30.3093 33.6379C30.3092 33.6609 30.311 33.6835 30.3116 33.7063ZM29.4946 30.9199C27.9959 30.9199 26.7765 32.1392 26.7765 33.6379C26.7765 33.6609 26.7782 33.6835 26.7788 33.7062L11.722 33.7062C11.7227 33.6833 11.7244 33.6609 11.7244 33.6379C11.7244 32.365 10.8446 31.2941 9.66135 31.0001C9.64915 30.8018 9.64227 30.6025 9.64227 30.4022C9.64227 30.3365 9.64322 30.271 9.6445 30.2056L16.2366 32.4441C16.6807 32.5948 17.1349 32.6692 17.5847 32.6692C18.4345 32.6692 19.2687 32.4038 19.9891 31.8878C21.0906 31.0984 21.7223 29.8687 21.7223 28.5134C21.7223 28.0289 21.6392 27.5536 21.4753 27.1006C21.3541 26.7659 20.9846 26.5928 20.6498 26.714C20.3151 26.8352 20.142 27.2047 20.2632 27.5394C20.3761 27.8513 20.4334 28.179 20.4334 28.5133C20.4334 29.4476 19.9978 30.2957 19.2383 30.8397C18.479 31.3839 17.5359 31.5237 16.6512 31.2233L7.02196 27.9535L7.02196 25.6516L17.5715 25.6516C17.8948 25.6516 18.2133 25.7057 18.5182 25.8126C18.8543 25.9305 19.222 25.7534 19.3397 25.4175C19.4575 25.0814 19.2805 24.7137 18.9446 24.5959C18.5023 24.441 18.0403 24.3624 17.5715 24.3624L11.7273 24.3624C13.7835 21.6857 17.1654 19.9346 20.9831 19.9346C27.2364 19.9346 32.3238 24.6304 32.3238 30.4022C32.3238 30.6084 32.3166 30.8136 32.3036 31.0179C31.9142 31.1259 31.5596 31.3185 31.2609 31.5746C30.7855 31.167 30.1685 30.9199 29.4946 30.9199ZM34.454 33.7063L31.6006 33.7063C31.5995 33.6836 31.5983 33.6609 31.5983 33.6379C31.5983 32.85 32.2393 32.209 33.0272 32.209C33.8152 32.209 34.4563 32.85 34.4563 33.6379C34.4563 33.6609 34.4551 33.6836 34.454 33.7063ZM34.8583 31.2197C34.7555 31.2726 34.6558 31.3306 34.5611 31.3955C34.2745 31.1989 33.9482 31.0569 33.5974 30.9817C33.6073 30.7893 33.6128 30.5962 33.6128 30.4023C33.6128 30.1648 33.6028 29.9293 33.5878 29.6952L34.8583 29.6952L34.8583 31.2197ZM37.5226 33.6379C37.5226 33.6609 37.5214 33.6835 37.5203 33.7062L35.743 33.7062C35.7436 33.6833 35.7454 33.6609 35.7454 33.6379C35.7454 33.1812 35.6316 32.7506 35.4317 32.3724C35.6296 32.2681 35.8547 32.209 36.0937 32.209C36.8816 32.209 37.5226 32.85 37.5226 33.6379ZM37.5226 27.7185C37.5226 28.0977 37.2142 28.4061 36.8351 28.4061L33.4281 28.4061C33.33 27.8759 33.1958 27.3569 33.0241 26.8533L37.5226 26.8533L37.5226 27.7185ZM42.7109 25.5642L32.4932 25.5642C32.2456 25.0558 31.9601 24.5669 31.6404 24.1001L34.375 24.1001C34.731 24.1001 35.0195 23.8114 35.0195 23.4556C35.0195 23.0996 34.731 22.811 34.375 22.811L30.6187 22.811C30.0022 22.134 29.3059 21.5222 28.5421 20.9895C28.5747 20.9907 28.6074 20.9917 28.6401 20.9917C29.2345 20.9917 29.8024 20.7772 30.2473 20.4045C30.692 20.7772 31.26 20.9917 31.8544 20.9917C32.4487 20.9917 33.0167 20.7772 33.4615 20.4045C33.9062 20.7772 34.4743 20.9917 35.0686 20.9917C35.6629 20.9917 36.2309 20.7772 36.6757 20.4045C37.1205 20.7772 37.6885 20.9917 38.2828 20.9917C38.8772 20.9917 39.4451 20.7772 39.89 20.4045C40.105 20.5847 40.3489 20.7275 40.6106 20.8274L39.6508 22.811L37.3828 22.811C37.0268 22.811 36.7383 23.0996 36.7383 23.4556C36.7383 23.8114 37.0268 24.1001 37.3828 24.1001L42.7109 24.1001L42.7109 25.5642Z" fill="#363853" fill-opacity="1.000000" fill-rule="nonzero"/>
		</g>
	</g>
</svg>
