<svg width="18.000122" height="18.000000" viewBox="0 0 18.0001 18" fill="none" xmlns="http://www.w3.org/2000/svg" xmlns:xlink="http://www.w3.org/1999/xlink">
	<desc>
			Created with Pixso.
	</desc>
	<defs/>
	<path id="Vector" d="M10.0553 9.00464L17.7712 1.28882C18.069 1.00122 18.0773 0.526611 17.7897 0.228882C17.5021 -0.0689697 17.0275 -0.0771484 16.7297 0.210449C16.7234 0.216431 16.7173 0.222534 16.7112 0.228882L8.99536 7.9447L1.27942 0.228882C0.981689 -0.0588379 0.50708 -0.0505371 0.219482 0.247314C-0.0610352 0.53772 -0.0610352 0.998291 0.219482 1.28882L7.93542 9.00464L0.219482 16.7206C-0.0731201 17.0133 -0.0731201 17.4878 0.219482 17.7805C0.512207 18.0731 0.986694 18.0731 1.27942 17.7805L8.99536 10.0647L16.7112 17.7805C17.009 18.0681 17.4835 18.0598 17.7711 17.7621C18.0516 17.4716 18.0516 17.011 17.7711 16.7206L10.0553 9.00464Z" fill="#363853" fill-opacity="1.000000" fill-rule="nonzero"/>
</svg>
