<svg width="44.000000" height="44.000000" viewBox="0 0 44 44" fill="none" xmlns="http://www.w3.org/2000/svg" xmlns:xlink="http://www.w3.org/1999/xlink">
	<desc>
			Created with Pixso.
	</desc>
	<defs>
		<clipPath id="clip0_161">
			<rect id="burger 1" width="44.000000" height="44.000000" fill="white" fill-opacity="0"/>
		</clipPath>
	</defs>
	<rect id="burger 1" width="44.000000" height="44.000000" fill="#FFFFFF" fill-opacity="0"/>
	<g clip-path="url(#clip0_161)">
		<path id="Vector" d="M44 20.3359C44 18.6467 42.9108 17.2079 41.3983 16.6825C41.1658 11.4418 39.2092 7.41992 35.573 4.71729C32.2543 2.25061 27.6877 1 22 1C16.3123 1 11.7457 2.25061 8.427 4.71729C4.79083 7.41992 2.83423 11.4418 2.60175 16.6826C1.08917 17.2079 0 18.6467 0 20.3359C0 21.3257 0.374146 22.2294 0.987854 22.9141C0.374146 23.5988 0 24.5024 0 25.4922C0 27.1918 1.1026 28.6378 2.62958 29.1552C3.1825 35.0454 8.1897 39.6719 14.2656 39.6719L29.7344 39.6719C35.8103 39.6719 40.8175 35.0454 41.3704 29.1552C42.8974 28.6378 44 27.1918 44 25.4922C44 24.5024 43.6259 23.5988 43.0121 22.9141C43.6259 22.2294 44 21.3257 44 20.3359ZM22 3.57812C29.3933 3.57812 38.1512 5.85718 38.8035 16.4688L5.19653 16.4688C5.84875 5.85718 14.6067 3.57812 22 3.57812ZM3.86719 19.0469L40.1328 19.0469C40.8436 19.0469 41.4219 19.6251 41.4219 20.3359C41.4219 21.0468 40.8436 21.625 40.1328 21.625L3.86719 21.625C3.15637 21.625 2.57812 21.0468 2.57812 20.3359C2.57812 19.6251 3.15637 19.0469 3.86719 19.0469ZM29.7344 37.0938L14.2656 37.0938C9.68457 37.0938 5.883 33.7264 5.24957 29.3594L6.44531 29.3594C7.30707 29.3594 7.57941 29.6525 8.12189 30.2366C8.78857 30.9545 9.70166 31.9375 11.6875 31.9375C13.6874 31.9375 14.5767 30.9445 15.226 30.2192C15.7387 29.6467 15.996 29.3594 16.8438 29.3594C17.6915 29.3594 17.9488 29.6467 18.4615 30.2192C19.1108 30.9445 20.0001 31.9375 22 31.9375C23.9999 31.9375 24.8892 30.9445 25.5385 30.2192C26.0511 29.6467 26.3085 29.3594 27.1562 29.3594C28.004 29.3594 28.2614 29.6467 28.774 30.2192C29.4233 30.9445 30.3126 31.9375 32.3125 31.9375C34.3124 31.9375 35.2017 30.9445 35.851 30.2192C36.3636 29.6467 36.621 29.3594 37.4688 29.3594L38.7504 29.3594C38.117 33.7264 34.3154 37.0938 29.7344 37.0938ZM40.1328 26.7812L37.4688 26.7812C35.4689 26.7812 34.5796 27.7743 33.9303 28.4995C33.4176 29.072 33.1603 29.3594 32.3125 29.3594C31.4647 29.3594 31.2074 29.072 30.6947 28.4995C30.0454 27.7743 29.1561 26.7812 27.1562 26.7812C25.1564 26.7812 24.2671 27.7743 23.6178 28.4995C23.1051 29.072 22.8478 29.3594 22 29.3594C21.1522 29.3594 20.895 29.072 20.3822 28.4995C19.7329 27.7743 18.8436 26.7812 16.8438 26.7812C14.8439 26.7812 13.9546 27.7743 13.3053 28.4995C12.7925 29.072 12.5353 29.3594 11.6875 29.3594C10.8257 29.3594 10.5534 29.0663 10.0109 28.4822C9.34424 27.7643 8.43115 26.7812 6.44531 26.7812L3.86719 26.7812C3.15637 26.7812 2.57812 26.203 2.57812 25.4922C2.57812 24.7814 3.15637 24.2031 3.86719 24.2031L40.1328 24.2031C40.8436 24.2031 41.4219 24.7814 41.4219 25.4922C41.4219 26.203 40.8436 26.7812 40.1328 26.7812Z" fill="#FFFFFF" fill-opacity="1.000000" fill-rule="nonzero"/>
		<path id="Vector" d="M15.5547 12.6016C15.5547 13.3135 14.9775 13.8906 14.2656 13.8906C13.5537 13.8906 12.9766 13.3135 12.9766 12.6016C12.9766 11.8896 13.5537 11.3125 14.2656 11.3125C14.9775 11.3125 15.5547 11.8896 15.5547 12.6016Z" fill="#FFFFFF" fill-opacity="1.000000" fill-rule="evenodd"/>
		<path id="Vector" d="M31.0234 12.6016C31.0234 13.3135 30.4463 13.8906 29.7344 13.8906C29.0225 13.8906 28.4453 13.3135 28.4453 12.6016C28.4453 11.8896 29.0225 11.3125 29.7344 11.3125C30.4463 11.3125 31.0234 11.8896 31.0234 12.6016Z" fill="#FFFFFF" fill-opacity="1.000000" fill-rule="evenodd"/>
		<path id="Vector" d="M25.8672 10.0234C25.8672 10.7354 25.29 11.3125 24.5781 11.3125C23.8662 11.3125 23.2891 10.7354 23.2891 10.0234C23.2891 9.31152 23.8662 8.73438 24.5781 8.73438C25.29 8.73438 25.8672 9.31152 25.8672 10.0234Z" fill="#FFFFFF" fill-opacity="1.000000" fill-rule="evenodd"/>
		<path id="Vector" d="M20.7109 7.44531C20.7109 8.15723 20.1338 8.73438 19.4219 8.73438C18.71 8.73438 18.1328 8.15723 18.1328 7.44531C18.1328 6.7334 18.71 6.15625 19.4219 6.15625C20.1338 6.15625 20.7109 6.7334 20.7109 7.44531Z" fill="#FFFFFF" fill-opacity="1.000000" fill-rule="evenodd"/>
	</g>
</svg>
