<svg width="20.000839" height="19.333252" viewBox="0 0 20.0008 19.3333" fill="none" xmlns="http://www.w3.org/2000/svg" xmlns:xlink="http://www.w3.org/1999/xlink">
	<desc>
			Created with Pixso.
	</desc>
	<defs/>
	<path d="M0.750534 0.750488L2.83054 1.1062L3.79353 12.446C3.87054 13.3723 4.65355 14.083 5.59354 14.0801L16.5026 14.0801C17.3996 14.082 18.1606 13.4297 18.2876 12.552L19.2366 6.07007C19.3426 5.34546 18.8336 4.67334 18.1016 4.5686C18.0376 4.55981 3.16454 4.55493 3.16454 4.55493" stroke="#363853" stroke-opacity="1.000000" stroke-width="1.500000" stroke-linejoin="round" stroke-linecap="round"/>
	<path d="M12.1255 8.20801L14.8985 8.20801" stroke="#363853" stroke-opacity="1.000000" stroke-width="1.500000" stroke-linejoin="round" stroke-linecap="round"/>
	<path d="M5.69878 18.0442C5.69878 18.342 5.4558 18.5833 5.15483 18.5833C4.85387 18.5833 4.61089 18.342 4.61089 18.0442C4.61089 17.7476 4.85387 17.5063 5.15483 17.5063C5.4558 17.5063 5.69878 17.7476 5.69878 18.0442Z" stroke="#363853" stroke-opacity="1.000000" stroke-width="1.500000" stroke-linejoin="round"/>
	<path d="M16.9801 18.0442C16.9801 18.342 16.7361 18.5833 16.4352 18.5833C16.1342 18.5833 15.8912 18.342 15.8912 18.0442C15.8912 17.7476 16.1342 17.5063 16.4352 17.5063C16.7361 17.5063 16.9801 17.7476 16.9801 18.0442Z" stroke="#363853" stroke-opacity="1.000000" stroke-width="1.500000" stroke-linejoin="round"/>
</svg>
