<svg width="31.885742" height="33.750000" viewBox="0 0 31.8857 33.75" fill="none" xmlns="http://www.w3.org/2000/svg" xmlns:xlink="http://www.w3.org/1999/xlink">
	<desc>
			Created with Pixso.
	</desc>
	<defs/>
	<path id="Vector" d="M13.7804 27L1.13879 27C0.510132 27 0 27.504 0 28.125C0 28.7461 0.510193 29.25 1.13879 29.25L13.7803 29.25C14.3076 31.8173 16.6046 33.75 19.3593 33.75C22.114 33.75 24.4108 31.8173 24.938 29.25L30.7469 29.25C31.3755 29.25 31.8857 28.7461 31.8857 28.125C31.8857 27.504 31.3755 27 30.7469 27L24.9383 27C24.411 24.4329 22.114 22.5 19.3593 22.5C16.6047 22.5 14.3076 24.4329 13.7804 27ZM22.7755 28.125C22.7755 29.9891 21.2463 31.5 19.3593 31.5C17.4723 31.5 15.9429 29.9891 15.9429 28.125C15.9429 26.261 17.4723 24.75 19.3593 24.75C21.2463 24.75 22.7755 26.261 22.7755 28.125ZM2.39264 15.75L1.13879 15.75C0.510132 15.75 0 16.254 0 16.875C0 17.496 0.510132 18 1.13879 18L2.39252 18C2.9198 20.5673 5.21674 22.5 7.97144 22.5C10.7262 22.5 13.023 20.5673 13.5503 18L30.7469 18C31.3755 18 31.8857 17.4961 31.8857 16.875C31.8857 16.254 31.3755 15.75 30.7469 15.75L13.5504 15.75C13.0231 13.1827 10.7262 11.25 7.9715 11.25C5.2168 11.25 2.91986 13.1827 2.39264 15.75ZM11.3878 16.875C11.3878 18.7391 9.8584 20.25 7.97144 20.25C6.08447 20.25 4.55511 18.7391 4.55511 16.875C4.55511 15.0109 6.08447 13.5 7.97144 13.5C9.8584 13.5 11.3878 15.0109 11.3878 16.875ZM18.3355 4.5L1.13879 4.5C0.510132 4.5 0 5.00403 0 5.625C0 6.24597 0.510132 6.75 1.13879 6.75L18.3355 6.75C18.8627 9.31726 21.1597 11.25 23.9143 11.25C26.669 11.25 28.9659 9.31726 29.4932 6.75L30.7469 6.75C31.3755 6.75 31.8857 6.24597 31.8857 5.625C31.8857 5.00403 31.3755 4.5 30.7469 4.5L29.4932 4.5C28.9659 1.93274 26.669 0 23.9143 0C21.1597 0 18.8628 1.93274 18.3355 4.5ZM27.3306 5.625C27.3306 7.48914 25.8013 9 23.9143 9C22.0274 9 20.498 7.48914 20.498 5.625C20.498 3.76086 22.0274 2.25 23.9143 2.25C25.8013 2.25 27.3306 3.76086 27.3306 5.625Z" fill="#FF6838" fill-opacity="1.000000" fill-rule="nonzero"/>
</svg>
