<svg width="24.000000" height="19.217407" viewBox="0 0 24 19.2174" fill="none" xmlns="http://www.w3.org/2000/svg" xmlns:xlink="http://www.w3.org/1999/xlink">
	<desc>
			Created with Pixso.
	</desc>
	<defs/>
	<path id="“" d="M18.7826 9.56519C17.5072 9.68115 16.4638 10.174 15.6522 11.0435C14.8406 11.9131 14.4348 13.0145 14.4348 14.3478C14.4348 15.7971 14.8696 16.9855 15.7391 17.9131C16.6087 18.7826 17.7101 19.2174 19.0435 19.2174C20.5507 19.2174 21.7681 18.6666 22.6956 17.5652C23.5652 16.4637 24 14.7537 24 12.4348C24 7.97107 22.5217 4.11597 19.5652 0.869507C18.9855 0.289795 18.3188 0 17.5652 0C16.9275 0 16.3768 0.231934 15.913 0.695679C15.4493 1.10144 15.2174 1.59424 15.2174 2.17395C15.2174 2.81165 15.4493 3.3623 15.913 3.82605C17.4203 5.39136 18.3768 7.30432 18.7826 9.56519ZM4.34782 9.56519C3.07246 9.68115 2.02899 10.174 1.21739 11.0435C0.405792 11.9131 0 13.0145 0 14.3478C0 15.7971 0.434784 16.9855 1.30435 17.9131C2.17392 18.7826 3.27536 19.2174 4.6087 19.2174C6.11594 19.2174 7.33333 18.6666 8.26086 17.5652C9.13043 16.4637 9.56522 14.7537 9.56522 12.4348C9.56522 7.97107 8.08696 4.11597 5.13043 0.869507C4.55072 0.289795 3.88406 0 3.13043 0C2.49275 0 1.94203 0.231934 1.47826 0.695679C1.0145 1.10144 0.782608 1.59424 0.782608 2.17395C0.782608 2.81165 1.0145 3.3623 1.47826 3.82605C2.9855 5.39136 3.94203 7.30432 4.34782 9.56519Z" fill="#C2C2C2" fill-opacity="1.000000" fill-rule="nonzero"/>
</svg>
