<svg width="22.000000" height="22.000000" viewBox="0 0 22 22" fill="none" xmlns="http://www.w3.org/2000/svg" xmlns:xlink="http://www.w3.org/1999/xlink">
	<desc>
			Created with Pixso.
	</desc>
	<defs>
		<clipPath id="clip0_431">
			<rect id="timer 1" width="22.000000" height="22.000000" fill="white" fill-opacity="0"/>
		</clipPath>
	</defs>
	<g opacity="0.900000">
		<rect id="timer 1" width="22.000000" height="22.000000" fill="#FFFFFF" fill-opacity="0"/>
		<g clip-path="url(#clip0_431)">
			<path id="Vector" d="M11.5748 2.54016L11.5748 1.58133C11.5748 1.41925 11.5104 1.26382 11.3958 1.1492C11.2812 1.03461 11.1257 0.970215 10.9637 0.970215C10.8016 0.970215 10.6462 1.03461 10.5316 1.1492C10.4169 1.26382 10.3525 1.41925 10.3525 1.58133L10.3525 2.54565C5.55042 2.87933 1.74445 6.88974 1.74445 11.7753C1.74445 16.8777 5.89667 21.0299 11 21.0299C16.1034 21.0299 20.2556 16.8777 20.2556 11.7753C20.2556 6.8653 16.4114 2.83807 11.5748 2.54016ZM11 19.8077C6.57037 19.8077 2.96667 16.204 2.96667 11.7753C2.96667 7.34595 6.57037 3.74252 11 3.74252C15.4297 3.74252 19.0334 7.34595 19.0334 11.7753C19.0334 16.204 15.4297 19.8077 11 19.8077Z" fill="#31352B" fill-opacity="1.000000" fill-rule="nonzero"/>
			<path id="Vector" d="M7.86298 17.3215C5.86804 16.1901 4.62866 14.0643 4.62866 11.7748C4.62866 11.6055 4.49213 11.4692 4.32312 11.4692C4.15417 11.4692 4.01758 11.6055 4.01758 11.7748C4.01758 14.284 5.37579 16.6133 7.56171 17.8535C7.63226 17.8935 7.71576 17.9038 7.79395 17.8821C7.87207 17.8605 7.93842 17.8087 7.97833 17.7382C8.01831 17.6676 8.02856 17.5841 8.00696 17.506C7.98535 17.4278 7.93353 17.3615 7.86298 17.3215Z" fill="#31352B" fill-opacity="1.000000" fill-rule="nonzero"/>
			<path id="Vector" d="M9.52924 18.1598C9.41089 18.1289 9.29346 18.0949 9.17694 18.0577C9.10022 18.0348 9.01752 18.0429 8.94672 18.0802C8.87592 18.1176 8.82257 18.1813 8.79822 18.2576C8.77386 18.3339 8.78046 18.4167 8.81653 18.4882C8.8526 18.5596 8.91534 18.6141 8.99115 18.6398C9.11829 18.6808 9.24597 18.7174 9.37646 18.7508C9.4549 18.771 9.53815 18.7592 9.60797 18.7181C9.67773 18.677 9.72833 18.6098 9.7486 18.5314C9.75867 18.4926 9.76099 18.4521 9.75537 18.4125C9.74982 18.3728 9.73645 18.3346 9.71606 18.3C9.69568 18.2655 9.6687 18.2354 9.6366 18.2113C9.60455 18.1873 9.56805 18.1697 9.52924 18.1598Z" fill="#31352B" fill-opacity="1.000000" fill-rule="nonzero"/>
			<path id="Vector" d="M18.8854 5.728C19.0002 5.84244 19.1557 5.90659 19.3177 5.90634C19.4798 5.90613 19.6351 5.84152 19.7495 5.72678C19.864 5.61203 19.9281 5.45651 19.9279 5.29446C19.9277 5.13242 19.863 4.97708 19.7483 4.86267L18.1616 3.27988C18.1048 3.22318 18.0374 3.17819 17.9632 3.14755C17.889 3.11691 17.8095 3.1012 17.7292 3.10132C17.649 3.10144 17.5695 3.11737 17.4954 3.14822C17.4214 3.17908 17.3541 3.22424 17.2974 3.2811C17.1831 3.3959 17.119 3.55139 17.1193 3.71341C17.1195 3.87543 17.184 4.03073 17.2986 4.14523L18.8854 5.728Z" fill="#31352B" fill-opacity="1.000000" fill-rule="nonzero"/>
			<path id="Vector" d="M11.5746 11.6612L11.5746 6.77567C11.5746 6.61359 11.5103 6.45816 11.3956 6.34354C11.2811 6.22894 11.1256 6.16455 10.9635 6.16455C10.8015 6.16455 10.646 6.22894 10.5314 6.34354C10.4168 6.45816 10.3524 6.61359 10.3524 6.77567L10.3524 11.9252C10.3524 12.0936 10.4401 12.254 10.5623 12.3692L12.3508 14.0406C12.469 14.1518 12.6196 14.2074 12.7703 14.2074C12.8521 14.2075 12.9331 14.1905 13.008 14.1574C13.0829 14.1244 13.15 14.076 13.2051 14.0155C13.4376 13.7698 13.4168 13.3833 13.1714 13.1517L11.5746 11.6612Z" fill="#31352B" fill-opacity="1.000000" fill-rule="nonzero"/>
		</g>
	</g>
</svg>
