<svg width="44.000000" height="44.000000" viewBox="0 0 44 44" fill="none" xmlns="http://www.w3.org/2000/svg" xmlns:xlink="http://www.w3.org/1999/xlink">
	<desc>
			Created with Pixso.
	</desc>
	<defs>
		<clipPath id="clip0_275">
			<rect id="christmas-dinner 1" width="44.000000" height="44.000000" fill="white" fill-opacity="0"/>
		</clipPath>
		<clipPath id="clip0_263">
			<rect id="sandwich 1" width="44.000000" height="44.000000" fill="white" fill-opacity="0"/>
		</clipPath>
	</defs>
	<rect id="sandwich 1" width="44.000000" height="44.000000" fill="#FFFFFF" fill-opacity="0"/>
	<g clip-path="url(#clip0_263)">
		<path id="Vector" d="M41.7999 6.59985L40.3333 6.59985L40.3333 5.13318C40.3333 3.91821 39.3482 2.93323 38.1332 2.93323L36.3865 2.93323L35.3253 0.810913C35.0787 0.312378 34.5697 -0.00231934 34.0134 -0.00012207L32.9999 -0.00012207C32.1899 -0.00012207 31.5333 0.656494 31.5333 1.46655L31.5333 2.93323L23.4666 2.93323C22.2515 2.93323 21.2665 3.91821 21.2665 5.1333L21.2665 6.59985L19.7999 6.59985C18.585 6.59985 17.5999 7.58496 17.5999 8.79993L17.5999 10.2666C17.5999 11.0767 18.2566 11.7333 19.0667 11.7333L19.1444 11.7333L20.0024 19.3101L16.4692 18.4799C16.291 18.2057 16.1025 17.9336 15.8928 17.6666L14.6461 12.3008C14.5691 11.969 14.2739 11.734 13.9333 11.7332L9.71957 11.7332C7.73148 9.98132 5.38187 9.18933 3.60941 9.71069L2.53287 8.53735C2.12604 8.09326 1.48691 7.94727 0.927643 8.17065C0.367401 8.38647 -0.00161743 8.92554 -6.10352e-05 9.52588L-6.10352e-05 41.8146C0.00158691 43.0208 0.979034 43.9983 2.18524 43.9999L38.1332 43.9999C38.506 43.9996 38.8193 43.7198 38.8615 43.3495L42.4541 11.7332L42.5333 11.7332C43.3434 11.7332 44 11.0765 44 10.2665L44 8.79993C43.9999 7.58496 43.015 6.59985 41.7999 6.59985ZM32.9999 1.46655L34.0134 1.46655L34.7467 2.93323L32.9999 2.93323L32.9999 1.46655ZM22.7332 5.13318C22.7332 4.72815 23.0616 4.3999 23.4666 4.3999L38.1332 4.3999C38.5383 4.3999 38.8665 4.72815 38.8665 5.13318L38.8665 6.59985L22.7332 6.59985L22.7332 5.13318ZM20.6799 20.9731L20.7262 20.9819L21.3187 21.1227L21.7162 25.2844C20.5645 24.469 19.1863 24.0347 17.7753 24.0421C18.0469 22.7483 17.9031 21.4017 17.3646 20.1943L20.6799 20.9731ZM22.1129 27.4596L22.1224 27.4677C22.388 27.7135 22.6403 27.9734 22.8777 28.2465C23.7502 29.22 24.3917 30.3778 24.7543 31.6337C24.8782 32.071 24.9421 32.5233 24.9442 32.9779L18.0949 25.5082C19.6183 25.6787 21.0369 26.3677 22.1129 27.4596ZM14.385 18.1396L14.385 18.1382C15.9676 19.9569 16.7046 22.1415 16.3548 23.6096L8.89163 15.4733C10.3972 15.1367 12.6866 16.1941 14.385 18.1396ZM13.3466 13.2L13.9333 15.6969C13.344 15.2371 12.7017 14.8495 12.0201 14.5427C11.7429 14.0737 11.4329 13.6251 11.0924 13.2L13.3466 13.2ZM9.66019 13.7455L9.66309 13.7455C9.72394 13.8152 9.77386 13.8922 9.83249 13.9655C9.14404 13.9021 8.45087 14.0186 7.82095 14.3036L4.80618 11.016C6.28024 11.0372 8.2038 12.0742 9.66019 13.7455ZM30.737 42.1025C30.6235 42.3636 30.3661 42.5327 30.0812 42.5333L23.4666 42.5333L2.18524 42.5333C1.7883 42.5333 1.46655 42.2115 1.46655 41.8146L1.45331 9.53333L16.1721 25.5815L16.1721 25.5852L24.8166 35.0093L24.8262 35.0203L29.5679 40.1918C29.5848 40.2137 29.6024 40.2357 29.6215 40.257L30.6049 41.3291C30.7987 41.5377 30.8506 41.8413 30.737 42.1025ZM26.1976 34.3448C26.3318 33.9069 26.4 33.4513 26.3999 32.9933C26.7852 33.3182 27.1442 33.6731 27.4736 34.0544C27.8832 34.5226 28.2469 35.0289 28.5596 35.5667C28.9879 36.2866 29.2906 37.0742 29.455 37.8956L26.1976 34.3448ZM37.4784 42.5333L32.1361 42.5333C32.4108 41.7734 32.2366 40.9237 31.6851 40.3333L30.9466 39.5266C31.0915 38.299 30.8935 37.0552 30.3746 35.9332L38.2286 35.9332L37.4784 42.5333ZM38.3951 34.4666L29.5951 34.4666C29.2941 33.9836 28.9568 33.5242 28.586 33.0923C27.8643 32.2545 27.0171 31.5339 26.0743 30.9561C25.6434 29.5974 24.931 28.3447 23.9836 27.2798C23.7636 27.0305 23.5436 26.7981 23.3126 26.5743L22.7333 20.4635C22.7035 20.1509 22.4779 19.892 22.1723 19.8197L21.5226 19.6656L21.3686 18.3333L40.2292 18.3333L38.3951 34.4666ZM40.3956 16.8666L21.2021 16.8666L20.6213 11.7333L40.9786 11.7333L40.3956 16.8666ZM42.5333 10.2666L19.0667 10.2666L19.0667 8.79993C19.0667 8.3949 19.3949 8.06653 19.7999 8.06653L41.7999 8.06653C42.205 8.06653 42.5333 8.3949 42.5333 8.79993L42.5333 10.2666Z" fill="#363853" fill-opacity="1.000000" fill-rule="nonzero"/>
		<path id="Vector" d="M31.1006 32.2667C31.1423 32.2667 31.1834 32.2609 31.2245 32.2594C31.2355 32.2594 31.2465 32.2667 31.2575 32.2667C31.2943 32.2644 31.3308 32.2593 31.3667 32.2513C32.5146 32.1738 33.5724 31.6017 34.2655 30.6835C35.1895 29.3853 35.4536 27.73 34.9798 26.2086C34.8778 25.8289 34.7847 25.4563 34.6945 25.0962C34.1226 22.8031 33.5762 20.6404 31.2596 20.543C31.2362 20.543 31.2142 20.5386 31.1907 20.5386C31.1672 20.5386 31.1328 20.5334 31.1005 20.5334C28.5089 20.5334 26.3998 23.1654 26.3998 26.4001C26.3998 29.6349 28.5089 32.2667 31.1006 32.2667ZM31.6682 22.11C32.4264 22.4077 32.7601 23.4014 33.2719 25.451C33.3636 25.8177 33.4589 26.202 33.5652 26.5913C33.9163 27.6722 33.7448 28.855 33.101 29.7916C32.8673 30.0981 32.5682 30.3486 32.2254 30.5249C32.2007 29.2643 31.9524 28.0181 31.4921 26.8442C31.4188 26.6155 31.3454 26.3948 31.2809 26.1843C30.8542 24.7963 31.3542 22.9973 31.6682 22.11ZM30.0922 22.22C29.615 23.6364 29.5416 25.1577 29.8802 26.6134C29.9477 26.8334 30.0225 27.0614 30.1003 27.2982C30.4669 28.4174 30.907 29.7704 30.7272 30.7662C29.1198 30.5154 27.8665 28.6542 27.8665 26.4C27.8665 24.453 28.8015 22.8 30.0922 22.22Z" fill="#363853" fill-opacity="1.000000" fill-rule="nonzero"/>
		<path id="Vector" d="M3.88138 38.563L3.36295 39.0815C3.17233 39.2656 3.09583 39.5382 3.16296 39.7947C3.23007 40.0511 3.4303 40.2513 3.68665 40.3184C3.94308 40.3855 4.2157 40.3091 4.39984 40.1184L4.9183 39.6C5.19623 39.3123 5.19229 38.8549 4.90936 38.572C4.62656 38.2891 4.1691 38.2852 3.88138 38.563Z" fill="#363853" fill-opacity="1.000000" fill-rule="nonzero"/>
		<path id="Vector" d="M10.8929 33.6263C11.1794 33.3398 11.1794 32.8752 10.8929 32.5886C10.6064 32.3021 10.1418 32.3021 9.85519 32.5886L9.33673 33.1072C9.15137 33.2924 9.07892 33.5624 9.14664 33.8156C9.21436 34.0687 9.41202 34.2665 9.6651 34.3344C9.91818 34.4022 10.1883 34.33 10.3737 34.1448L10.8929 33.6263Z" fill="#363853" fill-opacity="1.000000" fill-rule="nonzero"/>
		<path id="Vector" d="M4.39996 31.7482L3.8815 32.2667C3.69089 32.4508 3.61438 32.7234 3.68152 32.9799C3.74863 33.2362 3.94885 33.4365 4.2052 33.5035C4.46164 33.5707 4.73425 33.4943 4.9184 33.3036L5.43686 32.7852C5.71478 32.4974 5.71085 32.04 5.42795 31.7572C5.14511 31.4742 4.68765 31.4703 4.39996 31.7482Z" fill="#363853" fill-opacity="1.000000" fill-rule="nonzero"/>
		<path id="Vector" d="M4.39996 26.6149L3.8815 27.1333C3.69089 27.3175 3.61438 27.5901 3.68152 27.8466C3.74863 28.1029 3.94885 28.3031 4.2052 28.3702C4.46164 28.4374 4.73425 28.3608 4.9184 28.1703L5.43686 27.6517C5.71478 27.364 5.71085 26.9066 5.42795 26.6238C5.14511 26.3409 4.68765 26.337 4.39996 26.6149Z" fill="#363853" fill-opacity="1.000000" fill-rule="nonzero"/>
		<path id="Vector" d="M11 38.563L10.4815 39.0815C10.2909 39.2656 10.2144 39.5382 10.2816 39.7947C10.3487 40.0511 10.5489 40.2513 10.8052 40.3184C11.0617 40.3855 11.3343 40.3091 11.5184 40.1184L12.0369 39.6C12.3148 39.3123 12.3109 38.8549 12.028 38.572C11.7451 38.2891 11.2877 38.2852 11 38.563Z" fill="#363853" fill-opacity="1.000000" fill-rule="nonzero"/>
		<path id="Vector" d="M16.3481 38.563L15.8297 39.0814C15.6391 39.2656 15.5626 39.5382 15.6297 39.7947C15.6968 40.0511 15.897 40.2513 16.1534 40.3184C16.4098 40.3855 16.6824 40.309 16.8666 40.1184L17.385 39.6C17.663 39.3123 17.659 38.8547 17.3761 38.5719C17.0932 38.2892 16.6358 38.285 16.3481 38.563Z" fill="#363853" fill-opacity="1.000000" fill-rule="nonzero"/>
	</g>
</svg>
