<svg width="20.526306" height="16.675659" viewBox="0 0 20.5263 16.6757" fill="none" xmlns="http://www.w3.org/2000/svg" xmlns:xlink="http://www.w3.org/1999/xlink">
	<desc>
			Created with Pixso.
	</desc>
	<defs/>
	<path d="M20.5263 1.98083C19.7715 2.30646 18.95 2.54083 18.1039 2.63208C18.9824 2.11023 19.6402 1.28571 19.954 0.313293C19.1297 0.80365 18.2266 1.14752 17.2849 1.32959C16.8914 0.908875 16.4153 0.573669 15.8865 0.34491C15.3577 0.11615 14.7875 -0.00128174 14.2113 0C11.8801 0 10.0054 1.88959 10.0054 4.20837C10.0054 4.534 10.0449 4.85962 10.109 5.17291C6.61847 4.99036 3.50531 3.32281 1.43567 0.769653C1.05859 1.41376 0.860962 2.14716 0.863403 2.89355C0.863403 4.35394 1.6059 5.6416 2.73816 6.39893C2.07092 6.37262 1.41925 6.18921 0.836243 5.86359L0.836243 5.91541C0.836243 7.96039 2.2818 9.65509 4.20837 10.0449C3.84662 10.1388 3.47449 10.1869 3.10077 10.1879C2.82697 10.1879 2.56793 10.1608 2.30646 10.1238C2.83929 11.7914 4.39093 13.0026 6.23859 13.0421C4.79303 14.1743 2.98236 14.8403 1.0163 14.8403C0.663574 14.8403 0.337952 14.828 0 14.7885C1.86493 15.9849 4.07764 16.6757 6.46057 16.6757C14.1965 16.6757 18.4295 10.2668 18.4295 4.70422C18.4295 4.52167 18.4295 4.33911 18.4172 4.15656C19.2361 3.55713 19.954 2.81464 20.5263 1.98083Z" fill="#000000" fill-opacity="1.000000" fill-rule="nonzero"/>
</svg>
