<svg width="19.500366" height="19.500000" viewBox="0 0 19.5004 19.5" fill="none" xmlns="http://www.w3.org/2000/svg" xmlns:xlink="http://www.w3.org/1999/xlink">
	<desc>
			Created with Pixso.
	</desc>
	<defs/>
	<path d="M9.74756 6.4986C7.95721 6.4986 6.49615 7.95966 6.49615 9.75C6.49615 11.5403 7.95721 13.0014 9.74756 13.0014C11.5379 13.0014 12.999 11.5403 12.999 9.75C12.999 7.95966 11.5379 6.4986 9.74756 6.4986ZM19.4993 9.75C19.4993 8.40356 19.5115 7.0694 19.4359 5.7254C19.3602 4.16437 19.0042 2.77893 17.8626 1.63739C16.7186 0.493408 15.3356 0.139771 13.7746 0.0641479C12.4282 -0.0114746 11.094 0.000732422 9.75 0.000732422C8.40356 0.000732422 7.0694 -0.0114746 5.7254 0.0641479C4.16437 0.139771 2.77893 0.49585 1.63739 1.63739C0.493408 2.78137 0.139771 4.16437 0.0641479 5.7254C-0.0114746 7.07184 0.000732422 8.40601 0.000732422 9.75C0.000732422 11.094 -0.0114746 12.4306 0.0641479 13.7746C0.139771 15.3356 0.49585 16.7211 1.63739 17.8626C2.78137 19.0066 4.16437 19.3602 5.7254 19.4359C7.07184 19.5115 8.40601 19.4993 9.75 19.4993C11.0964 19.4993 12.4306 19.5115 13.7746 19.4359C15.3356 19.3602 16.7211 19.0042 17.8626 17.8626C19.0066 16.7186 19.3602 15.3356 19.4359 13.7746C19.5139 12.4306 19.4993 11.0964 19.4993 9.75ZM9.74756 14.7527C6.97913 14.7527 4.74487 12.5184 4.74487 9.75C4.74487 6.98157 6.97913 4.74731 9.74756 4.74731C12.516 4.74731 14.7502 6.98157 14.7502 9.75C14.7502 12.5184 12.516 14.7527 9.74756 14.7527ZM14.9551 5.71075C14.3088 5.71075 13.7868 5.18878 13.7868 4.54242C13.7868 3.89606 14.3088 3.37408 14.9551 3.37408C15.6015 3.37408 16.1235 3.89606 16.1235 4.54242C16.1237 4.69592 16.0936 4.8479 16.035 4.98975C15.9763 5.13159 15.8903 5.2605 15.7817 5.36902C15.6732 5.47754 15.5443 5.5636 15.4025 5.62225C15.2606 5.68085 15.1086 5.71094 14.9551 5.71075Z" fill="#000000" fill-opacity="1.000000" fill-rule="nonzero"/>
</svg>
