<svg width="8.718750" height="11.519531" viewBox="0 0 8.71875 11.5195" fill="none" xmlns="http://www.w3.org/2000/svg" xmlns:xlink="http://www.w3.org/1999/xlink">
	<desc>
			Created with Pixso.
	</desc>
	<defs/>
	<path id="₴" d="M4.41406 11.5195Q3.28125 11.5195 2.41406 11.1445Q1.55078 10.7656 1.05469 10.0703Q0.558594 9.375 0.558594 8.38281Q0.558594 7.58203 0.917969 7.00781Q1.28125 6.42969 1.97656 6.02344Q2.67188 5.61719 3.64844 5.29688Q4.64062 4.94531 5.29688 4.63281Q5.95312 4.32031 6.28906 3.95312Q6.625 3.58203 6.625 3.00781Q6.625 2.16016 6.09375 1.76172Q5.56641 1.35938 4.71875 1.35938Q3.67969 1.35938 3.02344 1.80078Q2.36719 2.23828 2.25391 2.91016Q2.20703 3.08594 2.07812 3.15234Q1.95312 3.21484 1.83984 3.21484L0.976562 3.21484Q0.832031 3.21484 0.734375 3.11328Q0.640625 3.00781 0.640625 2.89453Q0.640625 2.41406 0.894531 1.91016Q1.15234 1.40625 1.66406 0.96875Q2.17578 0.527344 2.94141 0.265625Q3.71094 0 4.71875 0Q5.79297 0 6.54297 0.394531Q7.29688 0.785156 7.69531 1.45703Q8.09766 2.12891 8.09766 2.97656Q8.09766 3.79297 7.70312 4.33594Q7.3125 4.87891 6.60547 5.27344Q5.90234 5.66406 4.97656 5.96875Q3.88672 6.30469 3.23828 6.64062Q2.58984 6.97656 2.30859 7.36719Q2.03125 7.75781 2.03125 8.33594Q2.03125 9.18359 2.63672 9.67188Q3.24609 10.1602 4.38281 10.1602Q5.29688 10.1602 5.87109 9.91406Q6.44922 9.66406 6.75 9.28906Q7.05469 8.91016 7.13672 8.52734Q7.19922 8.39844 7.28516 8.30469Q7.375 8.20703 7.55078 8.20703L8.38281 8.20703Q8.52734 8.20703 8.62109 8.3125Q8.71875 8.41406 8.71875 8.54297Q8.71875 9.29688 8.22266 9.97656Q7.72656 10.6562 6.75781 11.0898Q5.79297 11.5195 4.41406 11.5195ZM0.367188 7.18359Q0.191406 7.18359 0.09375 7.08203Q0 6.97656 0 6.81641L0 6.55859Q0 6.39844 0.09375 6.29688Q0.191406 6.19141 0.367188 6.19141L8.35156 6.19141Q8.51172 6.19141 8.61328 6.29688Q8.71875 6.39844 8.71875 6.55859L8.71875 6.81641Q8.71875 6.97656 8.61328 7.08203Q8.51172 7.18359 8.35156 7.18359L0.367188 7.18359ZM0.367188 5.42188Q0.191406 5.42188 0.09375 5.32031Q0 5.21484 0 5.05469L0 4.80078Q0 4.64062 0.09375 4.53516Q0.191406 4.42969 0.367188 4.42969L8.35156 4.42969Q8.51172 4.42969 8.61328 4.53516Q8.71875 4.64062 8.71875 4.80078L8.71875 5.05469Q8.71875 5.21484 8.61328 5.32031Q8.51172 5.42188 8.35156 5.42188L0.367188 5.42188Z" fill="#C2C2C2" fill-opacity="1.000000" fill-rule="evenodd"/>
</svg>
